<?xml version="1.0" encoding="utf-8"?>
<!-- Generator: Adobe Illustrator 17.1.0, SVG Export Plug-In . SVG Version: 6.00 Build 0)  -->
<!DOCTYPE svg PUBLIC "-//W3C//DTD SVG 1.1//EN" "http://www.w3.org/Graphics/SVG/1.1/DTD/svg11.dtd">
<svg version="1.1" id="Layer_1" xmlns="http://www.w3.org/2000/svg" xmlns:xlink="http://www.w3.org/1999/xlink" x="0px" y="0px"
	 viewBox="0 0 24 21" enable-background="new 0 0 24 21" xml:space="preserve">
<g>
	<defs>
		<rect id="SVGID_1_" y="0" width="24" height="21"/>
	</defs>
	<clipPath id="SVGID_2_">
		<use xlink:href="#SVGID_1_"  overflow="visible"/>
	</clipPath>
	
		<path clip-path="url(#SVGID_2_)" fill="none" stroke="#000000" stroke-width="2" stroke-linecap="round" stroke-linejoin="round" stroke-miterlimit="10" d="
		M17,9l4.2-3.7C21.7,4.8,22,4.1,22,3.5C22,2.1,20.9,1,19.5,1c-1.2,0-2.3,0.9-2.5,2"/>
	
		<path clip-path="url(#SVGID_2_)" fill="none" stroke="#000000" stroke-width="2" stroke-linecap="round" stroke-linejoin="round" stroke-miterlimit="10" d="
		M17,9l-4.2-3.7C12.3,4.8,12,4.1,12,3.5C12,2.1,13.1,1,14.5,1c1.2,0,2.3,0.9,2.5,2"/>
	
		<path clip-path="url(#SVGID_2_)" fill="none" stroke="#000000" stroke-width="2" stroke-linecap="round" stroke-linejoin="round" stroke-miterlimit="10" d="
		M16.2,14.1c0.7,0.3,1.1,1.2,0.8,1.9c-0.3,0.7-1.2,1.1-1.9,0.8L10,15"/>
	
		<path clip-path="url(#SVGID_2_)" fill="none" stroke="#000000" stroke-width="2" stroke-linecap="round" stroke-linejoin="round" stroke-miterlimit="10" d="
		M16.2,14.1L10.5,12c0,0-3.2-0.5-9.5,1.3L2,18c0,0,3.3-0.9,4.1-0.9c0.8,0,3.6,2,5.3,2.6c1.8,0.6,4.8,0.3,4.8,0.3l5.9-4.1
		c0.8-0.3,1.1-1.2,0.8-1.9c-0.3-0.8-1.2-1.1-1.9-0.8"/>
	
		<line clip-path="url(#SVGID_2_)" fill="none" stroke="#000000" stroke-width="2" stroke-linecap="round" stroke-linejoin="round" stroke-miterlimit="10" x1="21" y1="13.1" x2="17.1" y2="15.4"/>
</g>
</svg>
